#!OML:ASF \\Waltz\H\Terrain\Patient Classification 1\Animal2\Wednesday\Animal2.ASF
:FULLY-SPECIFIED
:DEGREES
791
root 10.4135 17.587 8.16591 -360.042 24.2156 359.214
lowerback 6.59411 -0.179216 1.68331
upperback -4.82276 -0.268083 -2.73851
thorax -8.83746 -0.327534 -3.82197
lowerneck 12.3272 8.77878 15.7758
upperneck -10.9663 13.0053 -13.4162
head -3.29345 6.7037 -7.3243
rclavicle -4.07509e-014 7.95139e-015
rhumerus 30.4265 34.0888 -38.5049
rradius 55.0984
rwrist -26.9451
rhand -19.5386 15.6745
rfingers 7.12502
rthumb 6.78521 -14.1968
lclavicle -4.07509e-014 7.95139e-015
lhumerus 15.5779 12.3989 12.2193
lradius 54.7412
lwrist 11.1566
lhand -49.7569 13.7665
lfingers 7.12502
lthumb -22.3558 42.4931
rfemur -26.5367 14.6014 14.4749
rtibia 30.2196
rfoot -4.78233 21.7418
rtoes 39.7915
lfemur -6.68966 -14.9465 -26.5142
ltibia 31.8074
lfoot -9.2393 -24.1993
ltoes 28.2248
792
root 10.4287 17.5742 8.24211 -360.12 25.3207 359.178
lowerback 6.57776 -0.164057 1.69481
upperback -4.7751 -0.238146 -2.64266
thorax -8.77223 -0.3083 -3.72901
lowerneck 12.4722 8.76912 15.7638
upperneck -11.3552 12.9793 -13.5752
head -3.42546 6.69729 -7.40254
rclavicle -2.49475e-014 -1.59028e-014
rhumerus 30.4212 33.9399 -38.7192
rradius 54.664
rwrist -26.7844
rhand -19.7662 15.6853
rfingers 7.12502
rthumb 6.56548 -14.1929
lclavicle -2.49475e-014 -1.59028e-014
lhumerus 15.4525 12.7033 12.3992
lradius 54.4184
lwrist 10.8615
lhand -49.568 12.988
lfingers 7.12502
lthumb -22.1744 41.7362
rfemur -26.1316 15.1272 14.4147
rtibia 30.9532
rfoot -5.92987 21.2679
rtoes 41.768
lfemur -6.92389 -15.0246 -26.4613
ltibia 32.7666
lfoot -8.43161 -24.6562
ltoes 30.4783
793
root 10.446 17.5572 8.31693 -360.122 26.5139 359.074
lowerback 6.48678 -0.193604 1.7987
upperback -4.77279 -0.25457 -2.4814
thorax -8.71645 -0.315759 -3.61213
lowerneck 12.7934 8.77684 15.6221
upperneck -11.7992 12.967 -13.8198
head -3.60267 6.71257 -7.50379
rclavicle -1.2424e-014 4.77083e-015
rhumerus 30.3943 33.7917 -38.906
rradius 54.3553
rwrist -26.749
rhand -19.5722 15.747
rfingers 7.12502
rthumb 6.75283 -14.1253
lclavicle -1.2424e-014 4.77083e-015
lhumerus 15.1245 12.8219 12.4476
lradius 54.2565
lwrist 10.8092
lhand -49.4651 12.7814
lfingers 7.12502
lthumb -22.0756 41.5413
rfemur -25.8112 15.5416 14.4025
rtibia 31.68
rfoot -9.78603 19.4524
rtoes 37.038
lfemur -7.33658 -15.0869 -26.3069
ltibia 33.8616
lfoot -7.77621 -25.1967
ltoes 31.5903
794
root 10.4657 17.539 8.38592 -360.045 27.7416 359.032
lowerback 6.50475 -0.253116 1.94423
upperback -4.88127 -0.310399 -2.36697
thorax -8.85005 -0.351137 -3.56635
lowerneck 13.1876 8.74615 15.3983
upperneck -12.0554 12.9187 -13.9209
head -3.75844 6.70926 -7.54389
rclavicle 4.25399e-014 -1.11319e-014
rhumerus 30.2861 33.8598 -39.0983
rradius 54.2097
rwrist -26.809
rhand -19.5242 15.5291
rfingers 7.12502
rthumb 6.79911 -14.3418
lclavicle 4.25399e-014 -1.11319e-014
lhumerus 14.5981 12.6695 12.2462
lradius 54.2259
lwrist 10.8991
lhand -49.5792 12.6922
lfingers 7.12502
lthumb -22.1851 41.4391
rfemur -25.6132 15.7449 14.3267
rtibia 32.3567
rfoot -13.1515 16.5031
rtoes 30.1508
lfemur -7.7978 -15.2605 -26.2228
ltibia 35.0363
lfoot -7.30266 -25.5384
ltoes 32.0776
795
root 10.4871 17.5212 8.45172 -360.025 28.9459 358.959
lowerback 6.48194 -0.272213 2.16085
upperback -4.9295 -0.310686 -2.33584
thorax -8.89163 -0.364701 -3.65635
lowerneck 13.3672 8.64379 15.3956
upperneck -12.053 12.7979 -13.9891
head -3.80074 6.65903 -7.57761
rclavicle -7.7526e-015 -8.74653e-015
rhumerus 30.1626 33.8837 -39.2578
rradius 54.1255
rwrist -26.8613
rhand -19.6491 15.3388
rfingers 7.12502
rthumb 6.67854 -14.5359
lclavicle -7.7526e-015 -8.74653e-015
lhumerus 14.2363 12.5853 12.0503
lradius 54.2606
lwrist 10.8193
lhand -49.4834 13.0508
lfingers 7.12502
lthumb -22.0932 41.8086
rfemur -25.433 15.5664 14.3545
rtibia 32.9942
rfoot -14.9199 13.4555
rtoes 23.6883
lfemur -8.32817 -15.3946 -26.1217
ltibia 36.3568
lfoot -6.88371 -25.7138
ltoes 32.5368
796
root 10.5118 17.5046 8.51786 -360.012 30.2078 358.862
lowerback 6.38988 -0.231265 2.45618
upperback -4.96467 -0.23009 -2.39969
thorax -8.87339 -0.345922 -3.90329
lowerneck 13.7858 8.4568 15.7427
upperneck -12.4191 12.624 -14.2589
head -3.96351 6.58106 -7.76408
rclavicle -2.61402e-014 3.18055e-015
rhumerus 29.8327 33.8121 -39.4427
rradius 54.1053
rwrist -27.0154
rhand -19.8325 15.1365
rfingers 7.12502
rthumb 6.50154 -14.7437
lclavicle -2.61402e-014 3.18055e-015
lhumerus 14.2067 12.4923 11.99
lradius 54.241
lwrist 10.7473
lhand -50.0815 14.725
lfingers 7.12502
lthumb -22.6673 43.4138
rfemur -25.4207 14.8329 14.5007
rtibia 33.4827
rfoot -15.3059 11.523
rtoes 20.0066
lfemur -8.9654 -15.3857 -26.0057
ltibia 37.8437
lfoot -6.50393 -25.7957
ltoes 32.8969
797
root 10.5373 17.4792 8.58292 -360.053 31.4833 358.685
lowerback 6.53166 -0.201101 2.85057
upperback -5.13972 -0.148845 -2.4537
thorax -9.14706 -0.341394 -4.20135
lowerneck 14.4425 8.33143 16.0429
upperneck -13.098 12.5575 -14.4437
head -4.25414 6.54957 -7.95241
rclavicle -3.79679e-014 -2.38542e-015
rhumerus 29.3668 33.9463 -39.6605
rradius 54.1489
rwrist -27.2377
rhand -20.0969 14.9355
rfingers 7.12502
rthumb 6.2463 -14.9524
lclavicle -3.79679e-014 -2.38542e-015
lhumerus 14.1418 12.2466 11.94
lradius 54.1264
lwrist 10.8082
lhand -51.4212 17.3384
lfingers 7.12502
lthumb -23.9525 45.8643
rfemur -25.1007 14.1771 14.6004
rtibia 33.9573
rfoot -14.9394 10.9957
rtoes 21.4863
lfemur -9.69176 -15.2471 -25.8134
ltibia 39.5231
lfoot -5.83618 -25.8715
ltoes 33.9113
798
root 10.5629 17.4654 8.64533 -360.094 32.6793 358.409
lowerback 6.62932 -0.182664 3.28363
upperback -5.31778 -0.0737194 -2.45408
thorax -9.39875 -0.341717 -4.46348
lowerneck 14.7864 8.35276 16.2121
upperneck -13.3925 12.6636 -14.4136
head -4.37513 6.59249 -8.00987
rclavicle 2.69353e-014 -2.06736e-014
rhumerus 28.9764 34.066 -39.8812
rradius 54.2994
rwrist -27.3499
rhand -20.1815 14.6778
rfingers 7.12502
rthumb 6.1646 -15.2125
lclavicle 2.69353e-014 -2.06736e-014
lhumerus 13.9846 12.0392 11.827
lradius 54.0047
lwrist 10.5584
lhand -46.7236 6.71579
lfingers 7.12502
lthumb -19.4415 35.7639
rfemur -25.1366 13.5069 14.8501
rtibia 34.4673
rfoot -14.2322 11.4226
rtoes 25.2698
lfemur -10.6309 -14.9236 -25.4804
ltibia 41.3293
lfoot -5.50959 -25.6528
ltoes 33.1721
799
root 10.5875 17.4467 8.70715 -360.111 33.882 358.312
lowerback 6.68072 -0.170119 3.52972
upperback -5.41026 -0.0276975 -2.46214
thorax -9.52966 -0.340757 -4.6216
lowerneck 14.614 8.50368 16.2765
upperneck -13.0616 12.8954 -14.2055
head -4.22193 6.69127 -7.92141
rclavicle -6.58971e-014 -6.36111e-015
rhumerus 28.6644 34.0567 -40.0886
rradius 54.5142
rwrist -27.3838
rhand -20.0479 14.2905
rfingers 7.12502
rthumb 6.29355 -15.596
lclavicle -6.58971e-014 -6.36111e-015
lhumerus 13.8153 11.9944 11.7832
lradius 53.8338
lwrist 9.84849
lhand -50.1204 23.6624
lfingers 7.12502
lthumb -22.7046 52.3466
rfemur -25.147 12.6397 15.0135
rtibia 35.0614
rfoot -14.3416 11.9894
rtoes 28.3315
lfemur -11.6097 -14.4662 -25.3265
ltibia 43.3206
lfoot -5.91655 -25.1889
ltoes 28.2259
800
root 10.6151 17.4172 8.76777 -360.302 35.0631 358.099
lowerback 7.00742 -0.109432 3.92354
upperback -5.54861 0.115073 -2.40068
thorax -9.86574 -0.307725 -4.80883
lowerneck 14.181 8.61155 16.1004
upperneck -12.4555 12.9965 -13.9521
head -3.9833 6.73404 -7.74927
rclavicle 0 2.06736e-014
rhumerus 28.2853 34.0533 -40.1459
rradius 54.6204
rwrist -27.4932
rhand -19.975 14.1814
rfingers 7.12502
rthumb 6.36391 -15.703
lclavicle 0 2.06736e-014
lhumerus 13.6963 11.9973 12.0294
lradius 53.6293
lwrist 9.50801
lhand -50.1547 21.5703
lfingers 7.12502
lthumb -22.7376 50.2505
rfemur -24.9126 11.6752 15.2751
rtibia 35.6424
rfoot -15.2784 11.983
rtoes 28.2438
lfemur -12.5427 -13.8314 -25.0871
ltibia 45.437
lfoot -7.13865 -24.6296
ltoes 19.5795
801
root 10.6418 17.3869 8.82727 -360.606 36.1837 357.31
lowerback 7.1207 0.0264824 4.64112
upperback -5.77117 0.415895 -2.109
thorax -10.1507 -0.212955 -4.95396
lowerneck 14.1853 8.51451 16.0358
upperneck -12.2323 12.8367 -14.1934
head -3.92682 6.68231 -7.80378
rclavicle 6.77856e-014 3.49861e-014
rhumerus 27.9482 34.0031 -39.935
rradius 54.4781
rwrist -27.5323
rhand -19.7759 14.4107
rfingers 7.12502
rthumb 6.55618 -15.4678
lclavicle 6.77856e-014 3.49861e-014
lhumerus 13.5246 11.9053 12.4514
lradius 53.5974
lwrist 9.86354
lhand -50.3201 19.8299
lfingers 7.12502
lthumb -22.8963 48.4905
rfemur -24.9531 10.8822 15.9771
rtibia 36.2714
rfoot -16.9023 10.9595
rtoes 21.8405
lfemur -13.8148 -12.8821 -24.2533
ltibia 47.6041
lfoot -8.34052 -23.9542
ltoes 14.3303
802
root 10.6633 17.3624 8.88595 -361.008 37.342 356.372
lowerback 7.03105 0.0825048 5.43691
upperback -5.86128 0.606817 -1.85247
thorax -10.1791 -0.169124 -5.15738
lowerneck 14.3099 8.38415 16.2339
upperneck -12.2292 12.6728 -14.6133
head -3.92678 6.6291 -7.97526
rclavicle -7.22582e-014 -1.03368e-014
rhumerus 27.8434 33.7966 -39.9193
rradius 54.2842
rwrist -27.3956
rhand -19.3177 14.6096
rfingers 7.12502
rthumb 6.99846 -15.2547
lclavicle -7.22582e-014 -1.03368e-014
lhumerus 13.2548 11.9996 12.5623
lradius 53.6802
lwrist 10.4929
lhand -50.4665 18.2975
lfingers 7.12502
lthumb -23.0368 46.9407
rfemur -25.0302 10.2061 16.8311
rtibia 36.9168
rfoot -17.9926 10.0486
rtoes 17.2217
lfemur -15.0988 -11.6239 -23.3115
ltibia 49.7382
lfoot -9.50242 -22.9193
ltoes 9.57809
803
root 10.6797 17.3337 8.94156 -361.279 38.5345 355.901
lowerback 6.64683 0.0721056 5.69014
upperback -5.49207 0.61059 -1.61439
thorax -9.5395 -0.14355 -5.02772
lowerneck 14.0253 8.45456 16.1815
upperneck -12.6212 12.6578 -14.9842
head -3.97338 6.63896 -8.08788
rclavicle 1.96797e-014 1.03368e-014
rhumerus 28.6338 33.3215 -39.3994
rradius 54.2406
rwrist -27.2692
rhand -19.0817 14.6311
rfingers 7.12502
rthumb 7.2263 -15.2256
lclavicle 1.96797e-014 1.03368e-014
lhumerus 12.9062 12.6531 12.488
lradius 53.8156
lwrist 11.252
lhand -50.6794 16.3046
lfingers 7.12502
lthumb -23.241 44.9221
rfemur -24.9491 9.55046 17.272
rtibia 37.4927
rfoot -18.3291 9.87273
rtoes 19.7114
lfemur -16.2742 -10.3114 -22.8187
ltibia 51.7296
lfoot -10.157 -21.7203
ltoes 3.00245
804
root 10.6951 17.3033 8.99851 -361.387 39.7302 355.682
lowerback 6.55412 0.128439 5.72702
upperback -5.42035 0.697832 -1.44542
thorax -9.39415 -0.0895162 -4.87517
lowerneck 14.2917 8.45592 16.1002
upperneck -13.1717 12.6408 -15.123
head -4.18005 6.64125 -8.17124
rclavicle 8.14023e-014 0
rhumerus 28.8768 33.1455 -39.0179
rradius 54.3294
rwrist -27.062
rhand -18.9004 14.4254
rfingers 7.12502
rthumb 7.40131 -15.4251
lclavicle 8.14023e-014 0
lhumerus 12.683 12.8506 12.5427
lradius 53.8903
lwrist 11.6966
lhand -50.6067 15.1868
lfingers 7.12502
lthumb -23.1713 43.8131
rfemur -24.8611 8.89156 17.4828
rtibia 38.037
rfoot -18.4217 9.68984
rtoes 22.6828
lfemur -17.4551 -9.10195 -22.5125
ltibia 53.5487
lfoot -10.5929 -20.6741
ltoes -2.94624
805
root 10.7157 17.2899 9.0535 -361.664 40.8424 355.323
lowerback 6.98582 0.206629 6.03254
upperback -5.65336 0.87867 -1.37664
thorax -9.88825 -0.0430339 -5.01455
lowerneck 14.3095 8.44141 16.1309
upperneck -12.9187 12.6613 -14.9614
head -4.1146 6.64242 -8.11058
rclavicle -1.23942e-013 -7.95139e-016
rhumerus 28.5712 33.1676 -39.1226
rradius 54.3597
rwrist -26.8687
rhand -18.669 14.1086
rfingers 7.12502
rthumb 7.62466 -15.734
lclavicle -1.23942e-013 -7.95139e-016
lhumerus 12.6806 12.988 12.8113
lradius 53.6384
lwrist 11.4785
lhand -49.9091 13.8338
lfingers 7.12502
lthumb -22.5019 42.5427
rfemur -24.6715 8.27391 17.836
rtibia 38.5426
rfoot -18.3923 9.35199
rtoes 24.1831
lfemur -18.4494 -7.73126 -22.0757
ltibia 55.2478
lfoot -11.3137 -19.5061
ltoes -7.98839
